# xmcd
#
# Track frame offsets:
#	150
#	11707
#	27850
#	44556
#	58480
#
# Disc length: 961 seconds
#
# Revision: 1
# Processed by: cddbd v1.5.2PL0 Copyright (c) Steve Scherf et al.
# Submitted via: audiograbber 1.83.01
#
DISCID=4203bf05
DTITLE=Goldhail - Golshail
DYEAR=2010
DGENRE=Ambient
TTITLE0=Topeka
TTITLE1=Black Rope Hell
TTITLE2=Appearing On A Butchers Counter
TTITLE3=Skylights
TTITLE4=Tress
EXTD=
EXTT0=
EXTT1=
EXTT2=
EXTT3=
EXTT4=
PLAYORDER=
